<svg width="27" height="40" viewBox="0 0 27 40" fill="none" xmlns="http://www.w3.org/2000/svg">
<mask id="path-1-outside-1_1_4266" maskUnits="userSpaceOnUse" x="0" y="0" width="27" height="40" fill="black">
<rect fill="white" width="27" height="40"/>
<path d="M13.5 1C20.4036 1 26 6.59644 26 13.5C26 16.3142 25.0694 18.9108 23.5 21C21 24.5 14.5 29 14.5 38C14.5 38.5523 14.0523 39 13.5 39C12.9477 39 12.5 38.5523 12.5 38C12.5 29 6 24.5 3.5 21C1.93058 18.9108 1 16.3142 1 13.5C1 6.59644 6.59644 1 13.5 1Z"/>
</mask>
<path d="M13.5 1C20.4036 1 26 6.59644 26 13.5C26 16.3142 25.0694 18.9108 23.5 21C21 24.5 14.5 29 14.5 38C14.5 38.5523 14.0523 39 13.5 39C12.9477 39 12.5 38.5523 12.5 38C12.5 29 6 24.5 3.5 21C1.93058 18.9108 1 16.3142 1 13.5C1 6.59644 6.59644 1 13.5 1Z" fill="#F9F9EE"/>
<path d="M23.5 21L22.7005 20.3994L22.6932 20.409L22.6863 20.4188L23.5 21ZM3.5 21L4.31373 20.4188L4.30675 20.409L4.29954 20.3994L3.5 21ZM13.5 1V2C19.8513 2 25 7.14873 25 13.5H26H27C27 6.04416 20.9558 0 13.5 0V1ZM26 13.5H25C25 16.09 24.1444 18.4772 22.7005 20.3994L23.5 21L24.2995 21.6006C25.9945 19.3443 27 16.5384 27 13.5H26ZM23.5 21L22.6863 20.4188C22.1049 21.2326 21.2826 22.115 20.2999 23.1937C19.3366 24.2509 18.2561 25.4589 17.2513 26.8527C15.2296 29.6571 13.5 33.2327 13.5 38H14.5H15.5C15.5 33.7673 17.0204 30.5929 18.8737 28.0223C19.8064 26.7286 20.8196 25.5928 21.7783 24.5407C22.7174 23.51 23.6451 22.5174 24.3137 21.5812L23.5 21ZM14.5 38H13.5V39V40C14.6046 40 15.5 39.1046 15.5 38H14.5ZM13.5 39V38H12.5H11.5C11.5 39.1046 12.3954 40 13.5 40V39ZM12.5 38H13.5C13.5 33.2327 11.7704 29.6571 9.74868 26.8527C8.74386 25.4589 7.66338 24.2509 6.70013 23.1937C5.71736 22.115 4.89508 21.2326 4.31373 20.4188L3.5 21L2.68627 21.5812C3.35492 22.5174 4.28264 23.51 5.22174 24.5407C6.18037 25.5928 7.19364 26.7286 8.12632 28.0223C9.97955 30.5929 11.5 33.7673 11.5 38H12.5ZM3.5 21L4.29954 20.3994C2.85563 18.4772 2 16.09 2 13.5H1H0C0 16.5384 1.00553 19.3443 2.70046 21.6006L3.5 21ZM1 13.5H2C2 7.14873 7.14873 2 13.5 2V1V0C6.04416 0 0 6.04416 0 13.5H1Z" fill="#231B1B" mask="url(#path-1-outside-1_1_4266)"/>
<path d="M17.095 16.875H11.77C11.275 16.875 10.8 16.665 10.465 16.3C10.13 15.935 9.96 15.445 10 14.95L10.415 9.97C10.43 9.815 10.375 9.665 10.27 9.55C10.165 9.435 10.02 9.375 9.865 9.375H9C8.795 9.375 8.625 9.205 8.625 9C8.625 8.795 8.795 8.625 9 8.625H9.87C10.235 8.625 10.58 8.78 10.825 9.045C10.96 9.195 11.06 9.37 11.115 9.565H17.36C17.865 9.565 18.33 9.765 18.67 10.125C19.005 10.49 19.175 10.965 19.135 11.47L18.865 15.22C18.81 16.135 18.01 16.875 17.095 16.875ZM11.14 10.31L10.75 15.01C10.725 15.3 10.82 15.575 11.015 15.79C11.21 16.005 11.48 16.12 11.77 16.12H17.095C17.615 16.12 18.085 15.68 18.125 15.16L18.395 11.41C18.415 11.115 18.32 10.835 18.125 10.63C17.93 10.42 17.66 10.305 17.365 10.305H11.14V10.31Z" fill="#0E0404"/>
<path d="M16.125 19.375C15.575 19.375 15.125 18.925 15.125 18.375C15.125 17.825 15.575 17.375 16.125 17.375C16.675 17.375 17.125 17.825 17.125 18.375C17.125 18.925 16.675 19.375 16.125 19.375ZM16.125 18.125C15.985 18.125 15.875 18.235 15.875 18.375C15.875 18.515 15.985 18.625 16.125 18.625C16.265 18.625 16.375 18.515 16.375 18.375C16.375 18.235 16.265 18.125 16.125 18.125Z" fill="#0E0404"/>
<path d="M12.125 19.375C11.575 19.375 11.125 18.925 11.125 18.375C11.125 17.825 11.575 17.375 12.125 17.375C12.675 17.375 13.125 17.825 13.125 18.375C13.125 18.925 12.675 19.375 12.125 19.375ZM12.125 18.125C11.985 18.125 11.875 18.235 11.875 18.375C11.875 18.515 11.985 18.625 12.125 18.625C12.265 18.625 12.375 18.515 12.375 18.375C12.375 18.235 12.265 18.125 12.125 18.125Z" fill="#0E0404"/>
<path d="M18.5 12.375H12.5C12.295 12.375 12.125 12.205 12.125 12C12.125 11.795 12.295 11.625 12.5 11.625H18.5C18.705 11.625 18.875 11.795 18.875 12C18.875 12.205 18.705 12.375 18.5 12.375Z" fill="#0E0404"/>
</svg>
